<?xml version="1.0" standalone="no"?>
<!DOCTYPE svg PUBLIC "-//W3C//DTD SVG 20010904//EN"
 "http://www.w3.org/TR/2001/REC-SVG-20010904/DTD/svg10.dtd">
<svg version="1.0" xmlns="http://www.w3.org/2000/svg"
 width="1280.000000pt" height="1280.000000pt" viewBox="0 0 1280.000000 1280.000000"
 preserveAspectRatio="xMidYMid meet">
<metadata>
Created by potrace 1.11, written by Peter Selinger 2001-2013
</metadata>
<g transform="translate(0.000000,1280.000000) scale(0.100000,-0.100000)"
fill="#000000" stroke="none">
<path d="M1244 12763 c-8 -8 -19 -11 -25 -7 -7 4 -9 3 -5 -4 3 -6 -7 -25 -24
-42 -16 -17 -30 -35 -30 -41 0 -6 -4 -8 -9 -5 -4 3 -19 -8 -31 -24 -12 -16
-27 -27 -31 -24 -5 3 -9 0 -9 -5 0 -14 -37 -51 -51 -51 -5 0 -7 -5 -4 -10 3
-6 -1 -13 -9 -16 -9 -3 -16 -16 -16 -28 0 -17 -2 -18 -10 -6 -8 12 -11 11 -16
-8 -5 -15 -12 -21 -22 -17 -12 5 -13 3 -2 -10 7 -9 9 -15 4 -14 -30 5 -42 -2
-37 -23 4 -19 3 -20 -6 -8 -10 15 -12 13 -15 -12 -1 -7 -10 -11 -21 -10 -16 3
-17 2 -6 -12 12 -14 10 -16 -8 -16 -12 0 -21 -6 -21 -15 0 -8 -7 -15 -15 -15
-8 0 -15 -7 -15 -16 0 -11 -5 -14 -16 -10 -15 6 -15 4 -3 -11 9 -11 10 -14 2
-9 -8 4 -13 2 -13 -4 0 -6 -4 -8 -10 -5 -5 3 -10 -1 -10 -9 0 -9 -9 -16 -20
-16 -14 0 -18 -5 -13 -17 5 -12 3 -14 -7 -8 -10 6 -12 4 -7 -8 3 -9 3 -16 -1
-16 -20 3 -31 -3 -37 -21 -4 -11 -11 -18 -16 -15 -5 4 -9 -1 -9 -10 0 -12 -5
-15 -16 -11 -15 6 -15 4 -3 -11 8 -9 9 -14 4 -11 -14 8 -40 -7 -40 -24 -1 -7
-6 -12 -13 -11 -7 2 -12 -4 -12 -12 0 -8 -7 -15 -15 -15 -8 0 -15 -7 -15 -16
0 -8 -4 -12 -10 -9 -5 3 -10 -1 -10 -9 0 -9 -7 -16 -15 -16 -8 0 -15 -7 -15
-15 0 -8 -7 -15 -16 -15 -8 0 -13 -4 -10 -8 2 -4 1 -14 -5 -22 -6 -10 -9 -11
-9 -2 0 6 -5 12 -11 12 -6 0 -9 -7 -6 -14 4 -9 -2 -17 -14 -21 -10 -4 -17 -11
-14 -16 4 -5 -1 -9 -9 -9 -10 0 -16 -9 -16 -22 0 -19 -2 -20 -10 -8 -8 13 -11
11 -16 -7 -4 -13 -10 -20 -15 -17 -5 3 -9 -2 -9 -10 0 -9 -7 -16 -15 -16 -8 0
-14 -5 -12 -12 1 -7 -4 -12 -10 -13 -7 0 -13 -4 -14 -10 0 -5 -10 -15 -22 -22
-12 -7 -17 -13 -12 -13 6 0 -1 -6 -15 -13 -13 -7 -30 -22 -36 -35 -6 -12 -14
-19 -17 -15 -4 3 -7 -1 -7 -10 0 -10 -8 -17 -20 -17 -11 0 -19 -3 -19 -7 3
-20 -2 -34 -11 -28 -5 3 -10 -1 -10 -10 0 -9 -5 -13 -10 -10 -6 3 -10 0 -10
-8 0 -8 -9 -17 -20 -20 -15 -4 -18 -10 -13 -24 6 -15 4 -16 -9 -5 -13 10 -16
9 -21 -9 -3 -11 -10 -18 -15 -15 -10 6 -15 -10223 -6 -10257 3 -9 10 -15 15
-12 8 6 14 -17 10 -39 -1 -5 6 -3 15 5 12 9 15 10 10 1 -4 -7 0 -19 8 -28 9
-8 16 -13 16 -10 0 3 11 -6 25 -20 14 -14 25 -29 25 -34 0 -6 6 -10 14 -10 14
0 31 -27 27 -43 -1 -5 2 -6 7 -3 5 3 18 -1 28 -9 19 -15 18 -15 -1 -10 -11 3
-7 -1 9 -8 20 -10 25 -16 15 -20 -11 -4 -11 -6 -1 -6 15 -1 47 -30 47 -42 0
-4 4 -11 9 -16 5 -5 6 -3 2 4 -4 7 -2 13 3 13 6 0 11 -5 11 -12 0 -16 51 -68
67 -68 7 0 13 -9 13 -20 0 -11 5 -20 11 -20 5 0 7 6 3 13 -4 7 -3 9 2 4 5 -5
9 -14 9 -20 1 -7 6 -11 13 -9 7 1 13 -2 13 -8 1 -5 2 -14 3 -19 0 -5 5 -13 10
-18 5 -5 6 -3 2 4 -4 7 -2 13 3 13 10 0 16 -22 12 -43 -1 -5 2 -6 6 -4 13 8
55 -12 48 -23 -3 -5 1 -10 9 -10 9 0 16 -6 16 -14 0 -8 5 -18 12 -22 7 -5 9
-2 4 7 -4 8 -1 5 8 -5 8 -10 13 -23 9 -29 -3 -6 -1 -7 5 -3 7 4 12 2 12 -3 0
-6 7 -11 15 -11 8 0 15 -7 15 -16 0 -8 4 -13 9 -10 10 7 25 -22 22 -44 -1 -11
0 -12 7 -3 6 10 12 10 28 -3 10 -8 14 -13 7 -10 -6 4 -15 2 -18 -4 -4 -6 -3
-10 2 -9 4 1 19 1 32 0 21 -1 22 -3 10 -18 -10 -11 -10 -14 -2 -9 8 4 13 2 13
-4 0 -6 5 -8 12 -4 8 5 9 2 5 -10 -4 -10 -3 -15 3 -11 6 3 10 1 10 -5 0 -6 12
-16 26 -22 23 -11 24 -13 7 -19 -16 -7 -16 -8 -1 -8 9 -1 22 -9 28 -18 11 -17
11 -17 6 0 -3 11 -2 15 4 12 6 -3 10 -13 10 -21 0 -8 11 -20 25 -26 23 -10 30
-21 26 -41 -1 -5 3 -6 9 -2 5 3 10 1 10 -4 0 -6 7 -11 15 -11 8 0 15 -7 15
-16 0 -9 5 -12 12 -8 8 5 9 2 5 -10 -4 -9 -3 -14 2 -11 5 3 13 -5 17 -17 7
-22 7 -22 15 -3 l8 20 1 -20 c2 -11 2 -23 1 -27 0 -5 5 -8 13 -8 20 0 48 -29
40 -42 -4 -7 -2 -8 4 -4 7 4 12 3 12 -2 0 -5 9 -12 20 -15 13 -3 20 -14 20
-29 0 -18 2 -20 10 -8 9 13 10 13 10 0 0 -8 9 -21 20 -28 12 -7 18 -17 15 -22
-3 -6 1 -10 10 -10 8 0 24 -15 35 -32 16 -27 20 -29 21 -13 0 16 3 14 11 -7
l10 -28 5129 0 c3609 0 5129 3 5129 11 0 5 4 8 9 5 5 -3 11 3 14 14 3 11 11
19 19 18 7 -2 12 4 10 14 -2 12 2 16 13 12 10 -4 15 0 15 11 0 11 5 15 15 11
10 -4 15 1 15 15 0 11 5 17 10 14 6 -3 10 3 10 14 0 14 5 19 15 15 9 -4 15 0
15 10 0 9 6 16 14 16 13 0 31 27 28 42 -1 4 7 5 18 3 13 -2 20 2 20 11 0 16
35 54 50 54 5 0 9 6 7 13 -1 6 4 11 11 10 6 -2 12 4 12 12 0 8 4 15 10 15 10
0 48 34 52 48 2 4 6 6 10 5 5 -2 8 2 8 7 0 10 36 50 45 50 3 0 14 9 25 20 11
11 18 20 15 20 -3 0 4 9 15 20 11 11 25 20 30 20 6 0 10 7 10 16 0 8 5 12 10
9 6 -3 10 0 10 8 0 8 9 17 21 20 12 3 18 10 14 16 -3 6 1 11 9 11 9 0 16 7 16
16 0 8 5 12 10 9 6 -3 10 0 10 8 0 8 9 17 20 20 13 3 18 10 14 21 -5 12 -2 15
10 10 11 -4 16 -1 16 10 0 9 5 15 12 13 7 -1 13 5 13 13 0 8 6 14 13 13 7 -2
12 4 12 13 0 10 6 14 15 10 10 -4 15 1 15 14 0 12 7 20 16 20 10 0 14 6 10 15
-4 10 1 15 15 15 13 0 18 4 13 12 -5 8 -2 9 9 5 12 -4 17 -1 17 11 0 9 18 30
40 45 22 16 40 35 40 43 0 8 9 14 21 14 11 0 18 4 14 10 -3 5 3 18 15 30 11
11 20 17 21 12 0 -4 4 3 10 16 5 13 13 20 19 17 5 -3 10 1 10 9 0 9 7 16 15
16 8 0 15 7 15 16 0 8 4 13 8 10 4 -2 17 9 27 25 11 16 28 29 37 29 12 0 15 5
11 17 -4 11 -3 14 5 9 7 -4 12 -1 12 8 0 9 7 16 15 16 8 0 15 7 15 15 0 8 7
15 15 15 8 0 15 7 15 15 0 8 6 15 13 15 10 0 13 211 12 1130 0 747 3 1130 10
1130 7 0 7 3 0 8 -12 9 -14 2292 -2 2292 5 0 5 6 0 13 -10 16 -11 227 0 227 4
0 5 6 0 13 -12 19 -11 107 1 107 7 0 8 3 1 8 -12 8 -13 41 -2 60 5 6 4 12 -1
12 -10 0 -9 101 2 118 3 6 3 13 -1 15 -10 7 -9 1159 1 1175 4 6 4 12 -1 12
-10 0 -10 311 1 328 4 7 3 12 -1 12 -5 0 -9 9 -10 20 -1 11 3 20 8 20 6 0 7 6
2 12 -11 20 -10 3222 2 3230 7 5 7 8 0 8 -6 0 -10 54 -9 142 0 79 -1 148 -3
155 -3 6 -14 14 -26 17 -18 5 -20 8 -7 16 13 8 12 10 -2 10 -10 0 -27 9 -37
19 -11 11 -23 16 -27 13 -5 -4 -2 2 6 13 8 11 10 17 6 13 -5 -4 -15 0 -23 10
-9 10 -12 11 -7 2 5 -10 0 -9 -14 4 -24 21 -29 30 -9 21 6 -4 3 0 -7 9 -10 8
-24 12 -30 9 -6 -4 -4 2 4 13 8 10 10 16 6 12 -5 -4 -15 0 -23 10 -9 10 -12
11 -7 2 5 -10 0 -9 -14 4 -24 21 -29 32 -10 20 7 -4 8 -3 4 4 -4 7 -16 12 -27
12 -10 0 -20 7 -20 15 -3 35 -6 40 -17 37 -7 -1 -15 5 -18 13 -4 8 -15 15 -26
15 -18 0 -19 2 -7 17 9 11 10 14 2 9 -7 -4 -21 -2 -30 4 -16 10 -16 11 -1 6
12 -3 15 -1 12 9 -3 8 -12 11 -20 8 -8 -3 -14 1 -14 8 0 8 -14 22 -31 31 -17
10 -27 22 -24 28 3 5 -1 10 -9 10 -9 0 -16 7 -16 15 0 8 -4 15 -10 15 -5 0
-10 8 -10 18 -1 15 -2 15 -17 -3 -10 -13 -14 -14 -10 -4 3 9 -3 21 -15 28 -12
7 -17 18 -14 28 6 13 4 14 -9 3 -9 -7 -15 -9 -14 -4 4 22 -2 44 -12 44 -5 0
-7 -6 -4 -12 4 -7 0 -5 -8 4 -8 10 -17 15 -21 11 -4 -4 -4 1 0 11 6 15 4 17
-6 11 -10 -6 -12 -4 -6 10 6 16 4 16 -11 4 -11 -9 -14 -10 -9 -1 4 7 2 12 -4
12 -7 0 -9 7 -6 16 6 14 4 15 -9 4 -9 -7 -15 -9 -14 -4 3 18 -3 49 -8 37 -7
-18 -43 7 -43 29 0 9 -5 20 -12 24 -7 5 -9 2 -4 -7 4 -8 1 -5 -8 5 -8 10 -13
23 -10 28 3 5 2 8 -3 7 -4 -1 -16 -1 -27 0 -16 1 -16 3 -6 17 11 12 11 15 -1
12 -8 -2 -13 3 -11 11 3 12 1 12 -13 1 -9 -7 -15 -9 -14 -4 4 21 -2 44 -11 44
-5 0 -7 -7 -4 -15 4 -8 1 -15 -5 -15 -6 0 -10 3 -10 8 4 21 -2 32 -13 26 -9
-5 -8 -2 1 9 12 15 12 17 -3 11 -11 -4 -16 -1 -16 11 0 9 -4 14 -9 10 -5 -3
-12 4 -16 15 -4 11 -11 18 -16 15 -5 -4 -9 1 -9 9 0 18 -34 39 -45 28 -5 -4
-6 0 -3 8 6 16 -16 43 -26 33 -3 -4 -6 1 -6 11 0 9 -4 14 -10 11 -5 -3 -10 -1
-10 5 0 6 -4 8 -10 5 -6 -4 -7 1 -3 11 4 11 3 15 -5 10 -6 -3 -13 3 -17 14 -3
11 -13 20 -22 20 -10 0 -13 6 -9 16 6 14 4 15 -9 4 -9 -7 -15 -9 -14 -4 3 20
-2 35 -10 29 -5 -3 -12 4 -16 15 -4 11 -11 18 -16 15 -5 -4 -9 1 -9 10 0 11
-5 15 -15 11 -8 -3 -14 0 -12 7 1 7 -7 11 -18 9 -16 -2 -17 -1 -6 7 12 8 11
12 -4 28 -18 17 -180 18 -5148 19 -4374 0 -5131 -1 -5143 -13z m1334 -2526
c14 4 14 3 2 -5 -8 -6 -18 -8 -22 -6 -5 3 -8 2 -7 -3 3 -18 -1 -33 -10 -33 -5
0 -8 8 -7 18 1 20 20 44 24 32 2 -5 11 -6 20 -3z m156 -8 c-2 -4 10 -9 27 -11
19 -3 28 -1 26 6 -3 8 27 11 93 11 54 0 96 -3 94 -6 -2 -4 10 -9 27 -11 19 -3
28 -1 26 6 -3 8 27 11 93 11 54 0 96 -3 94 -6 -2 -4 10 -9 27 -11 19 -3 28 -1
26 6 -3 8 27 11 93 11 54 0 96 -3 94 -6 -2 -4 10 -9 27 -11 19 -3 28 -1 26 6
-3 8 27 11 93 11 54 0 96 -3 94 -6 -2 -4 10 -9 27 -11 19 -3 28 -1 26 6 -3 8
27 11 93 11 54 0 96 -3 94 -6 -2 -4 10 -9 27 -11 19 -3 28 -1 26 6 -3 8 27 11
93 11 54 0 96 -3 94 -6 -2 -4 10 -9 27 -11 19 -3 28 -1 26 6 -3 8 27 11 93 11
54 0 96 -3 94 -6 -2 -4 10 -9 27 -11 19 -3 28 -1 26 6 -3 8 27 11 93 11 54 0
96 -3 94 -6 -2 -4 10 -9 27 -11 19 -3 28 -1 26 6 -3 8 27 11 93 11 54 0 96 -3
94 -6 -2 -4 10 -9 27 -11 19 -3 28 -1 26 6 -3 8 45 11 158 11 90 0 161 -3 158
-7 -5 -10 11 -10 21 -1 9 10 106 11 100 1 -3 -4 2 -8 11 -8 9 0 14 4 11 8 -3
5 1 9 9 9 8 0 12 -4 9 -9 -6 -10 10 -11 20 -1 9 10 145 10 139 1 -5 -10 11
-10 21 -1 9 10 106 11 100 1 -3 -4 2 -8 11 -8 9 0 14 4 11 8 -3 5 1 9 9 9 8 0
12 -4 9 -9 -6 -10 10 -11 20 -1 9 10 145 10 139 1 -5 -10 11 -10 21 -1 9 10
106 11 100 1 -3 -4 2 -8 11 -8 9 0 14 4 11 8 -3 5 1 9 9 9 8 0 12 -4 9 -9 -6
-10 10 -11 20 -1 9 10 145 10 139 1 -5 -10 11 -10 21 -1 9 10 106 11 100 1 -3
-4 2 -8 11 -8 9 0 14 4 11 8 -3 5 1 9 9 9 8 0 12 -4 9 -9 -6 -10 10 -11 20 -1
9 10 145 10 139 1 -5 -10 11 -10 21 -1 9 10 106 11 100 1 -3 -4 2 -8 11 -8 9
0 14 4 11 8 -3 5 1 9 9 9 8 0 12 -4 9 -9 -6 -10 10 -11 20 -1 9 10 145 10 139
1 -5 -10 11 -10 21 -1 9 10 106 11 100 1 -3 -4 2 -8 11 -8 9 0 14 4 11 8 -3 5
1 9 9 9 8 0 12 -4 9 -9 -6 -10 10 -11 20 -1 9 10 145 10 139 1 -5 -10 11 -10
21 -1 9 10 106 11 100 1 -3 -4 2 -8 11 -8 9 0 14 4 11 8 -3 5 1 9 9 9 8 0 12
-4 9 -9 -6 -10 10 -11 20 -1 9 10 145 10 139 1 -5 -10 11 -10 21 -1 9 10 106
11 100 1 -3 -4 2 -8 11 -8 9 0 14 4 11 8 -3 5 1 9 9 9 8 0 12 -4 9 -9 -6 -10
10 -11 20 -1 10 10 116 11 122 1 3 -4 10 -8 15 -8 6 0 8 3 6 8 -3 4 21 7 53 7
32 0 57 -2 54 -6 -2 -4 10 -9 27 -11 19 -3 28 -1 26 6 -3 8 27 11 93 11 54 0
96 -3 94 -6 -2 -4 10 -9 27 -11 19 -3 28 -1 26 6 -3 8 27 11 93 11 54 0 96 -3
94 -6 -2 -4 10 -9 27 -11 19 -3 28 -1 26 6 -3 8 27 11 93 11 54 0 96 -3 94 -6
-2 -4 10 -9 27 -11 19 -3 28 -1 26 6 -3 8 27 11 93 11 54 0 96 -3 94 -6 -2 -4
10 -9 27 -11 19 -3 28 -1 26 6 -3 8 27 11 93 11 54 0 96 -3 94 -6 -2 -4 10 -9
27 -11 19 -3 28 -1 26 6 -3 8 27 11 93 11 54 0 96 -3 94 -6 -2 -4 10 -9 27
-11 19 -3 28 -1 26 6 -3 8 27 11 93 11 54 0 96 -3 94 -6 -2 -4 10 -9 27 -11
19 -3 28 -1 26 6 -3 8 27 11 93 11 54 0 96 -3 94 -6 -2 -4 10 -9 27 -11 19 -3
28 -1 26 6 -3 8 27 11 93 11 54 0 96 -3 94 -6 -2 -4 10 -9 27 -11 19 -3 28 -1
26 7 -3 6 8 11 28 11 19 0 31 -4 29 -8 -3 -5 -11 -5 -17 -2 -7 4 -8 3 -4 -2 5
-5 14 -9 20 -9 9 0 12 -388 12 -1600 0 -1055 3 -1603 10 -1607 7 -5 7 -8 0 -8
-5 0 -10 -13 -10 -30 0 -16 4 -30 8 -30 4 0 4 -8 -1 -17 -10 -20 -9 -129 1
-139 3 -4 3 -14 -2 -23 -9 -18 -8 -128 2 -137 3 -4 1 -16 -4 -27 -8 -15 -8
-22 2 -28 8 -5 9 -9 3 -9 -11 0 -12 -85 -1 -96 3 -4 1 -16 -4 -27 -8 -15 -8
-22 2 -28 11 -7 11 -9 -1 -9 -13 0 -13 -1 0 -10 8 -5 10 -10 4 -10 -11 0 -12
-66 -1 -76 3 -4 3 -14 -2 -23 -9 -18 -8 -128 2 -137 3 -4 1 -16 -4 -27 -8 -15
-8 -22 2 -28 8 -5 9 -9 3 -9 -11 0 -12 -85 -1 -96 3 -4 1 -16 -4 -27 -8 -15
-8 -22 2 -28 8 -5 10 -9 4 -9 -5 0 -10 -13 -10 -30 0 -16 4 -30 8 -30 5 0 5
-6 0 -12 -10 -17 -10 -348 0 -348 5 0 5 -6 0 -12 -10 -17 -10 -108 0 -108 5 0
5 -6 0 -12 -10 -17 -10 -188 0 -188 5 0 5 -6 0 -12 -10 -17 -10 -108 0 -108 5
0 5 -6 0 -12 -10 -17 -10 -188 0 -188 5 0 5 -6 0 -12 -10 -17 -10 -108 0 -108
5 0 5 -6 0 -12 -10 -17 -10 -188 0 -188 5 0 5 -6 0 -12 -10 -17 -10 -108 0
-108 5 0 5 -6 0 -13 -10 -16 -10 -187 0 -187 5 0 5 -6 0 -13 -10 -16 -10 -107
0 -107 5 0 5 -6 0 -12 -10 -17 -10 -188 0 -188 5 0 5 -6 0 -12 -10 -17 -11
-125 -2 -161 5 -16 4 -25 -2 -22 -5 4 -9 1 -9 -4 0 -6 6 -11 13 -11 7 0 8 -3
2 -8 -12 -8 -14 -142 -2 -142 5 0 5 -5 1 -11 -11 -19 -12 -79 -1 -72 6 4 7 1
1 -8 -12 -20 -11 -299 1 -299 6 0 3 -5 -5 -10 -13 -9 -13 -10 0 -10 9 0 11 -3
5 -8 -12 -8 -14 -142 -2 -142 4 0 3 -10 -4 -21 -9 -17 -8 -23 2 -30 8 -5 10
-9 4 -9 -12 0 -13 -79 -2 -97 4 -6 4 -14 0 -16 -5 -3 -8 -62 -7 -131 0 -71 -3
-123 -8 -120 -5 3 -16 0 -25 -8 -12 -9 -15 -9 -9 0 5 8 0 12 -14 12 -13 0 -19
-4 -14 -12 5 -8 3 -8 -7 -2 -21 14 -133 14 -141 1 -5 -8 -8 -8 -8 -1 0 5 -21
11 -46 13 -34 1 -44 -1 -38 -10 5 -9 3 -9 -7 -3 -21 14 -133 14 -141 1 -5 -8
-8 -8 -8 -1 0 5 -21 11 -46 13 -34 1 -44 -1 -38 -10 5 -9 3 -9 -7 -3 -21 14
-133 14 -141 1 -5 -8 -8 -8 -8 -1 0 5 -21 11 -46 13 -34 1 -44 -1 -38 -10 5
-9 3 -9 -7 -3 -21 14 -133 14 -141 1 -5 -8 -8 -8 -8 -1 0 5 -21 11 -46 13 -34
1 -44 -1 -38 -10 5 -9 3 -9 -7 -3 -21 14 -133 14 -141 1 -5 -8 -8 -8 -8 -1 0
5 -21 11 -46 13 -34 1 -44 -1 -38 -10 5 -9 3 -9 -7 -3 -21 14 -133 14 -141 1
-5 -8 -8 -8 -8 -1 0 5 -21 11 -46 13 -34 1 -44 -1 -38 -10 5 -9 3 -9 -7 -3
-21 14 -133 14 -141 1 -5 -8 -8 -8 -8 -1 0 5 -21 11 -46 13 -34 1 -44 -1 -38
-10 5 -9 3 -9 -7 -3 -21 14 -133 14 -141 1 -5 -8 -8 -8 -8 -1 0 5 -21 11 -46
13 -34 1 -44 -1 -38 -10 5 -9 3 -9 -7 -3 -21 14 -133 14 -141 1 -5 -8 -8 -8
-8 -1 0 5 -21 11 -46 13 -34 1 -44 -1 -38 -10 5 -9 3 -9 -7 -3 -21 14 -133 14
-141 1 -5 -8 -8 -8 -8 -1 0 5 -21 11 -46 13 -34 1 -44 -1 -38 -10 5 -9 3 -9
-7 -3 -21 14 -133 14 -141 1 -5 -8 -8 -8 -8 -1 0 5 -21 11 -46 13 -34 1 -44
-1 -38 -10 5 -9 3 -9 -7 -3 -21 14 -133 14 -141 1 -5 -8 -8 -8 -8 -1 0 5 -21
11 -46 13 -34 1 -44 -1 -38 -10 5 -9 3 -9 -7 -3 -21 14 -133 14 -141 1 -5 -8
-8 -8 -8 -1 0 5 -21 11 -46 13 -34 1 -44 -1 -38 -10 5 -9 3 -9 -7 -3 -21 14
-133 14 -141 1 -5 -8 -8 -8 -8 -1 0 5 -21 11 -46 13 -34 1 -44 -1 -38 -10 5
-9 3 -9 -7 -3 -21 14 -133 14 -141 1 -5 -8 -8 -8 -8 -1 0 5 -21 11 -46 13 -34
1 -44 -1 -38 -10 5 -9 3 -9 -7 -3 -21 14 -133 14 -141 1 -5 -8 -8 -8 -8 -1 0
5 -21 11 -46 13 -34 1 -44 -1 -38 -10 5 -9 3 -9 -7 -3 -21 14 -133 14 -141 1
-5 -8 -8 -8 -8 -1 0 5 -21 11 -46 13 -34 1 -44 -1 -38 -10 5 -9 3 -9 -7 -3
-21 14 -133 14 -141 1 -5 -8 -8 -8 -8 -1 0 5 -21 11 -46 13 -34 1 -44 -1 -38
-10 5 -9 3 -9 -7 -3 -21 14 -133 14 -141 1 -5 -8 -8 -8 -8 -1 0 5 -21 11 -46
13 -34 1 -44 -1 -38 -10 5 -9 3 -9 -7 -3 -21 14 -133 14 -141 1 -5 -8 -8 -8
-8 -1 0 5 -21 11 -46 13 -34 1 -44 -1 -38 -10 5 -9 3 -9 -7 -3 -21 14 -133 14
-141 1 -5 -8 -8 -8 -8 -1 0 5 -21 11 -46 13 -34 1 -44 -1 -38 -10 5 -9 3 -9
-7 -3 -21 14 -133 14 -141 1 -5 -8 -8 -8 -8 -1 0 5 -21 11 -46 13 -34 1 -44
-1 -38 -10 5 -9 3 -9 -7 -3 -21 14 -133 14 -141 1 -5 -8 -8 -8 -8 -1 0 5 -21
11 -46 13 -34 1 -44 -1 -38 -10 5 -9 3 -9 -7 -3 -21 14 -133 14 -141 1 -5 -8
-8 -8 -8 -1 0 5 -21 11 -46 13 -34 1 -44 -1 -38 -10 5 -9 3 -9 -7 -3 -21 14
-133 14 -141 1 -5 -8 -8 -8 -8 -1 0 5 -21 11 -46 13 -34 1 -44 -1 -38 -10 5
-9 3 -9 -7 -3 -21 14 -133 14 -141 1 -5 -8 -8 -8 -8 -1 0 5 -21 11 -46 13 -34
1 -44 -1 -38 -10 5 -9 3 -9 -7 -3 -21 14 -133 14 -141 1 -5 -8 -8 -8 -8 -1 0
5 -21 11 -46 13 -34 1 -44 -1 -38 -10 5 -9 3 -9 -7 -3 -21 14 -133 14 -141 1
-5 -8 -8 -8 -8 -1 0 5 -21 11 -46 13 -34 1 -44 -1 -38 -10 5 -9 3 -9 -7 -3
-21 14 -133 14 -141 1 -5 -8 -8 -8 -8 -1 0 5 -21 11 -46 13 -34 1 -44 -1 -38
-10 5 -9 3 -9 -7 -3 -21 14 -133 14 -141 1 -5 -8 -8 -8 -8 -1 0 5 -21 11 -46
13 -34 1 -44 -1 -38 -10 5 -9 3 -9 -7 -3 -21 14 -133 14 -141 1 -6 -9 -8 -9
-8 0 0 15 -149 14 -169 -1 -11 -8 -13 -8 -7 2 5 9 -3 12 -29 12 -30 0 -36 3
-31 16 6 15 4 15 -11 3 -16 -13 -16 -12 0 14 10 16 16 31 13 35 -3 3 -6 0 -6
-6 0 -7 -4 -12 -10 -12 -6 0 -5 10 2 25 6 13 15 22 21 18 6 -3 7 -1 3 6 -6 9
-12 9 -24 -1 -14 -11 -14 -8 1 15 10 16 16 31 13 35 -3 3 -6 0 -6 -6 0 -7 -5
-12 -10 -12 -6 0 -3 15 6 32 17 32 17 33 -2 18 -15 -13 -15 -9 5 25 12 22 16
32 8 23 -23 -29 -29 -21 -11 15 17 31 17 32 -2 17 -18 -15 -18 -14 -1 13 10
16 16 31 13 35 -3 3 -6 0 -6 -6 0 -7 -5 -12 -10 -12 -6 0 -3 15 6 32 17 32 17
33 -2 18 -18 -15 -18 -14 -1 13 10 16 16 31 13 35 -3 3 -6 0 -6 -6 0 -7 -4
-12 -10 -12 -6 0 -5 10 2 25 6 13 15 22 21 18 6 -3 7 -1 3 6 -6 9 -12 9 -24
-1 -14 -11 -14 -8 1 15 10 16 16 31 13 35 -3 3 -6 0 -6 -6 0 -7 -5 -12 -10
-12 -6 0 -3 15 6 33 17 31 17 32 -2 17 -15 -13 -15 -9 5 25 12 22 16 32 8 23
-23 -29 -29 -21 -11 15 17 31 17 32 -2 17 -18 -15 -18 -14 -1 13 10 16 16 31
13 35 -3 3 -6 0 -6 -6 0 -7 -5 -12 -10 -12 -6 0 -3 15 6 32 17 32 17 33 -2 18
-18 -15 -18 -14 -1 13 10 16 16 31 13 35 -3 3 -6 0 -6 -6 0 -7 -4 -12 -10 -12
-6 0 -5 10 2 25 6 13 15 22 21 18 6 -3 7 -1 3 6 -6 9 -12 9 -24 -1 -14 -11
-14 -8 1 15 10 16 16 31 13 35 -3 3 -6 0 -6 -6 0 -7 -5 -12 -10 -12 -6 0 -3
15 6 33 17 31 17 32 -2 17 -15 -13 -15 -9 5 25 12 22 16 32 8 23 -23 -29 -29
-21 -11 14 17 32 17 33 -2 18 -18 -15 -18 -14 -1 13 10 16 16 31 13 35 -3 3
-6 0 -6 -6 0 -7 -5 -12 -10 -12 -6 0 -3 15 6 33 17 31 17 32 -2 17 -18 -15
-18 -14 -1 13 10 16 16 31 13 35 -3 3 -6 0 -6 -6 0 -7 -4 -12 -10 -12 -6 0 -5
10 2 25 6 13 15 22 21 18 6 -3 7 -1 3 6 -6 9 -12 9 -24 -1 -14 -11 -14 -8 1
15 10 16 16 31 13 35 -3 3 -6 0 -6 -6 0 -7 -5 -12 -10 -12 -6 0 -3 15 6 32 17
32 17 33 -2 18 -15 -13 -15 -9 5 25 12 22 16 32 8 23 -23 -29 -29 -21 -11 15
17 31 17 32 -2 17 -18 -15 -18 -14 -1 13 10 16 16 31 13 35 -3 3 -6 0 -6 -6 0
-7 -5 -12 -10 -12 -6 0 -3 15 6 32 17 32 17 33 -2 18 -18 -15 -18 -14 -1 13
10 16 16 31 13 35 -3 3 -6 0 -6 -6 0 -7 -4 -12 -10 -12 -6 0 -5 10 2 25 6 13
15 22 21 18 6 -3 7 -1 3 6 -6 9 -12 9 -24 -1 -14 -11 -14 -8 1 15 10 16 16 31
13 35 -3 3 -6 0 -6 -6 0 -7 -5 -12 -10 -12 -6 0 -3 15 6 33 17 31 17 32 -2 17
-15 -13 -15 -9 5 25 12 22 16 32 8 23 -23 -29 -29 -21 -11 14 17 32 17 33 -2
18 -18 -15 -18 -14 -1 13 10 16 16 31 13 35 -3 3 -6 0 -6 -6 0 -7 -5 -12 -10
-12 -6 0 -3 15 6 33 17 31 17 32 -2 17 -18 -15 -18 -14 -1 13 10 16 16 31 13
35 -3 3 -6 0 -6 -6 0 -7 -4 -12 -10 -12 -6 0 -5 10 2 25 6 13 15 22 21 18 6
-3 7 -1 3 6 -6 9 -12 9 -24 -1 -14 -11 -14 -8 1 15 10 16 16 31 13 35 -3 3 -6
0 -6 -6 0 -7 -5 -12 -10 -12 -6 0 -3 15 6 33 17 31 17 32 -2 17 -15 -13 -15
-9 5 25 12 22 16 32 8 23 -23 -29 -29 -21 -11 15 17 31 17 32 -2 17 -18 -15
-18 -14 -1 13 10 16 16 31 13 35 -3 3 -6 0 -6 -6 0 -7 -5 -12 -10 -12 -6 0 -3
15 6 32 17 32 17 33 -2 18 -18 -15 -18 -14 -1 13 10 16 16 31 13 35 -3 3 -6 0
-6 -6 0 -7 -4 -12 -10 -12 -6 0 -5 10 2 25 6 13 15 22 21 18 6 -3 7 -1 3 6 -6
9 -12 9 -24 -1 -14 -11 -14 -8 1 15 10 16 16 31 13 35 -3 3 -6 0 -6 -6 0 -7
-5 -12 -10 -12 -6 0 -3 15 6 33 17 31 17 32 -2 17 -15 -13 -15 -9 5 25 12 22
16 32 8 23 -23 -29 -29 -21 -11 14 17 32 17 33 -2 18 -18 -15 -18 -14 -1 13
10 16 16 31 13 35 -3 3 -6 0 -6 -6 0 -7 -5 -12 -10 -12 -6 0 -3 15 6 33 17 31
17 32 -2 17 -18 -15 -18 -14 -1 13 10 16 16 31 13 35 -3 3 -6 0 -6 -6 0 -7 -4
-12 -10 -12 -6 0 -5 10 2 25 6 13 15 22 21 18 6 -3 7 -1 3 6 -6 9 -12 9 -24
-1 -14 -11 -14 -8 1 15 10 16 16 31 13 35 -3 3 -6 0 -6 -6 0 -7 -5 -12 -10
-12 -6 0 -3 15 6 32 17 32 17 33 -2 18 -15 -13 -15 -9 5 25 12 22 16 32 8 23
-23 -29 -29 -21 -11 15 17 31 17 32 -2 17 -18 -15 -18 -14 -1 13 10 16 16 31
13 35 -3 3 -6 0 -6 -6 0 -7 -3 -12 -7 -12 -5 0 -8 11 -8 24 0 19 3 22 13 13
10 -8 12 -7 10 4 -2 8 -9 18 -16 24 -10 8 -10 14 3 30 9 11 13 14 9 6 -5 -10
-3 -12 6 -6 11 7 9 12 -8 23 -11 7 -18 20 -15 28 3 8 8 12 12 10 3 -2 6 9 6
24 1 16 -3 26 -7 24 -5 -3 -6 -10 -3 -15 4 -5 1 -9 -4 -9 -17 0 -13 18 8 39
19 19 19 19 0 24 -13 3 -17 11 -13 21 3 9 9 14 13 12 3 -2 7 8 7 22 1 15 -1
21 -3 15 -10 -28 -18 -10 -17 40 0 28 7 63 14 77 13 24 12 24 -5 10 -17 -14
-18 -14 -6 8 6 12 17 22 24 23 7 0 2 4 -10 9 -15 6 -21 15 -17 25 3 8 9 13 13
11 3 -2 7 8 7 22 1 15 -1 21 -3 15 -10 -28 -18 -10 -17 40 0 28 7 63 14 77 13
24 12 24 -5 10 -17 -14 -18 -14 -6 8 6 12 17 22 24 23 7 0 2 4 -10 9 -15 6
-21 15 -17 25 3 8 9 13 13 11 3 -2 7 8 7 22 1 15 -1 21 -3 15 -10 -28 -18 -10
-17 40 0 28 7 63 14 77 13 24 12 24 -5 10 -17 -14 -18 -14 -6 8 6 12 17 22 24
23 7 0 2 4 -10 9 -15 6 -21 15 -17 25 3 8 9 13 13 11 3 -2 7 8 7 22 1 15 -1
21 -3 15 -10 -28 -18 -10 -17 40 0 28 7 63 14 77 13 24 12 24 -5 10 -17 -14
-18 -14 -6 8 6 12 17 22 24 23 7 0 2 4 -10 9 -15 6 -21 15 -17 25 3 8 9 13 13
11 3 -2 7 8 7 22 1 15 -1 21 -3 15 -10 -28 -18 -10 -17 40 0 28 7 63 14 77 13
24 12 24 -5 10 -17 -14 -18 -14 -6 8 6 12 17 22 24 23 7 0 2 4 -10 9 -15 6
-21 15 -17 25 3 8 9 13 13 11 3 -2 7 8 7 22 1 15 -1 21 -3 15 -10 -28 -18 -10
-17 40 0 28 7 63 14 77 13 24 12 24 -5 10 -17 -14 -18 -14 -6 8 6 12 17 22 24
23 7 0 2 4 -10 9 -15 6 -21 15 -17 25 3 8 9 13 13 11 3 -2 7 8 7 22 1 15 -1
21 -3 15 -10 -28 -18 -10 -17 40 0 28 7 63 14 77 13 24 12 24 -5 10 -17 -14
-18 -14 -6 8 6 12 17 22 24 23 7 0 2 4 -10 9 -15 6 -21 15 -17 25 3 8 9 13 13
11 3 -2 7 8 7 22 1 15 -1 21 -3 15 -10 -28 -18 -10 -17 40 0 28 7 63 14 77 13
24 12 24 -5 10 -17 -14 -18 -14 -6 8 6 12 17 22 24 23 7 0 2 4 -10 9 -15 6
-21 15 -17 25 3 8 9 13 13 11 3 -2 7 8 7 22 1 15 -1 21 -3 15 -10 -28 -18 -10
-17 40 0 28 7 63 14 77 13 24 12 24 -5 10 -17 -14 -18 -14 -6 8 6 12 17 22 24
23 7 0 2 4 -10 9 -15 6 -21 15 -17 25 3 8 9 13 13 11 3 -2 7 8 7 22 1 15 -1
21 -3 15 -10 -28 -18 -10 -17 40 0 28 7 63 14 77 13 24 12 24 -5 10 -17 -14
-18 -14 -6 8 6 12 17 22 24 23 7 0 2 4 -10 9 -15 6 -21 15 -17 25 3 8 9 13 13
11 3 -2 7 8 7 22 1 15 -1 21 -3 15 -10 -28 -18 -10 -17 40 0 28 7 63 14 77 13
24 12 24 -5 10 -17 -14 -18 -14 -6 8 6 12 17 22 24 23 7 0 2 4 -10 9 -15 6
-21 15 -17 25 3 8 9 13 13 11 3 -2 7 8 7 22 1 15 -1 21 -3 15 -10 -28 -18 -10
-17 40 0 28 7 63 14 77 13 24 12 24 -5 10 -17 -14 -18 -14 -6 8 6 12 17 22 24
23 7 0 2 4 -10 9 -15 6 -21 15 -17 25 3 8 9 13 13 11 3 -2 7 8 7 22 1 15 -1
21 -3 15 -10 -28 -18 -10 -17 40 0 28 7 63 14 77 13 24 12 24 -5 10 -17 -14
-18 -14 -6 8 6 12 17 22 24 23 7 0 2 4 -10 9 -15 6 -21 15 -17 25 3 8 9 13 13
11 3 -2 7 8 7 22 1 15 -1 21 -3 15 -10 -28 -18 -10 -17 40 0 28 7 63 14 77 13
24 12 24 -5 10 -17 -14 -18 -14 -6 8 6 12 17 22 24 23 7 0 2 4 -10 9 -15 6
-21 15 -17 25 3 8 9 13 13 11 3 -2 7 8 7 22 1 15 -1 21 -3 15 -10 -28 -18 -10
-17 40 0 28 7 63 14 77 13 24 12 24 -5 10 -17 -14 -18 -14 -6 8 6 12 17 22 24
23 7 0 2 4 -10 9 -15 6 -21 15 -17 25 3 8 9 13 13 11 3 -2 7 8 7 22 1 15 -1
21 -3 15 -10 -28 -18 -10 -17 40 0 28 7 63 14 77 13 24 12 24 -5 10 -17 -14
-18 -14 -6 8 6 12 17 22 24 23 7 0 2 4 -10 9 -15 6 -21 15 -17 25 3 8 9 13 13
11 3 -2 7 8 7 22 1 15 -1 21 -3 15 -10 -28 -18 -10 -17 40 0 28 7 63 14 77 13
24 12 24 -5 10 -17 -14 -18 -14 -6 8 6 12 17 22 24 23 7 0 2 4 -10 9 -15 6
-21 15 -17 25 3 8 9 13 13 11 3 -2 7 8 7 22 1 15 -1 21 -3 15 -10 -28 -18 -10
-17 40 0 28 7 63 14 77 13 24 12 24 -5 10 -17 -14 -18 -14 -6 8 6 12 17 22 24
23 7 0 2 4 -10 9 -15 6 -21 15 -17 25 3 8 9 13 13 11 3 -2 7 8 7 22 1 15 -1
21 -3 15 -10 -28 -18 -10 -17 40 0 28 7 63 14 77 13 24 12 24 -5 10 -17 -14
-18 -14 -6 8 6 12 17 22 24 23 7 0 2 4 -10 9 -15 6 -21 15 -17 25 3 8 9 13 13
11 3 -2 7 8 7 22 1 15 -1 21 -3 15 -10 -28 -18 -10 -17 40 0 28 7 63 14 77 13
24 12 24 -5 10 -17 -14 -18 -14 -6 8 7 12 17 20 24 17 7 -3 2 1 -10 10 -21 16
-22 51 0 38 6 -3 7 -1 3 5 -12 20 13 54 36 49 12 -4 18 -1 15 6 -3 9 16 12 63
12 38 0 67 -3 64 -6z m8770 -507 c3 -5 -1 -9 -9 -9 -8 0 -12 4 -9 9 3 4 7 8 9
8 2 0 6 -4 9 -8z m-1 -637 c-3 -9 -8 -14 -10 -11 -3 3 -2 9 2 15 9 16 15 13 8
-4z m1 -111 c3 -8 2 -12 -4 -9 -6 3 -10 10 -10 16 0 14 7 11 14 -7z m0 -1160
c3 -8 2 -12 -4 -9 -6 3 -10 10 -10 16 0 14 7 11 14 -7z m0 -60 c3 -8 2 -12 -4
-9 -6 3 -10 10 -10 16 0 14 7 11 14 -7z m-1 -1229 c-3 -9 -8 -14 -10 -11 -3 3
-2 9 2 15 9 16 15 13 8 -4z m1 -111 c3 -8 2 -12 -4 -9 -6 3 -10 10 -10 16 0
14 7 11 14 -7z m0 -1160 c3 -8 2 -12 -4 -9 -6 3 -10 10 -10 16 0 14 7 11 14
-7z m0 -60 c3 -8 2 -12 -4 -9 -6 3 -10 10 -10 16 0 14 7 11 14 -7z m-1 -1229
c-3 -9 -8 -14 -10 -11 -3 3 -2 9 2 15 9 16 15 13 8 -4z m1 -111 c3 -8 2 -12
-4 -9 -6 3 -10 10 -10 16 0 14 7 11 14 -7z m0 -1160 c3 -8 2 -12 -4 -9 -6 3
-10 10 -10 16 0 14 7 11 14 -7z m0 -60 c3 -8 2 -12 -4 -9 -6 3 -10 10 -10 16
0 14 7 11 14 -7z m6 -130 c0 -8 -19 -13 -24 -6 -3 5 1 9 9 9 8 0 15 -2 15 -3z
m0 -160 c0 -8 -19 -13 -24 -6 -3 5 1 9 9 9 8 0 15 -2 15 -3z m0 -160 c0 -8
-19 -13 -24 -6 -3 5 1 9 9 9 8 0 15 -2 15 -3z m0 -160 c0 -8 -19 -13 -24 -6
-3 5 1 9 9 9 8 0 15 -2 15 -3z m0 -160 c0 -8 -19 -13 -24 -6 -3 5 1 9 9 9 8 0
15 -2 15 -3z m0 -160 c0 -8 -19 -13 -24 -6 -3 5 1 9 9 9 8 0 15 -2 15 -3z m0
-160 c0 -8 -19 -13 -24 -6 -3 5 1 9 9 9 8 0 15 -2 15 -3z m0 -160 c0 -8 -19
-13 -24 -6 -3 5 1 9 9 9 8 0 15 -2 15 -3z m-11240 -100 c0 -8 -19 -13 -24 -6
-3 5 1 9 9 9 8 0 15 -2 15 -3z m240 0 c0 -8 -19 -13 -24 -6 -3 5 1 9 9 9 8 0
15 -2 15 -3z m240 0 c0 -8 -19 -13 -24 -6 -3 5 1 9 9 9 8 0 15 -2 15 -3z m240
0 c0 -8 -19 -13 -24 -6 -3 5 1 9 9 9 8 0 15 -2 15 -3z m240 0 c0 -8 -19 -13
-24 -6 -3 5 1 9 9 9 8 0 15 -2 15 -3z m360 0 c0 -8 -19 -13 -24 -6 -3 5 1 9 9
9 8 0 15 -2 15 -3z m240 0 c0 -8 -19 -13 -24 -6 -3 5 1 9 9 9 8 0 15 -2 15 -3z
m240 0 c0 -8 -19 -13 -24 -6 -3 5 1 9 9 9 8 0 15 -2 15 -3z m240 0 c0 -8 -19
-13 -24 -6 -3 5 1 9 9 9 8 0 15 -2 15 -3z m240 0 c0 -8 -19 -13 -24 -6 -3 5 1
9 9 9 8 0 15 -2 15 -3z m1560 0 c0 -8 -19 -13 -24 -6 -3 5 1 9 9 9 8 0 15 -2
15 -3z m240 0 c0 -8 -19 -13 -24 -6 -3 5 1 9 9 9 8 0 15 -2 15 -3z m240 0 c0
-8 -19 -13 -24 -6 -3 5 1 9 9 9 8 0 15 -2 15 -3z m240 0 c0 -8 -19 -13 -24 -6
-3 5 1 9 9 9 8 0 15 -2 15 -3z m240 0 c0 -8 -19 -13 -24 -6 -3 5 1 9 9 9 8 0
15 -2 15 -3z m240 0 c0 -8 -19 -13 -24 -6 -3 5 1 9 9 9 8 0 15 -2 15 -3z m240
0 c0 -8 -19 -13 -24 -6 -3 5 1 9 9 9 8 0 15 -2 15 -3z m240 0 c0 -8 -19 -13
-24 -6 -3 5 1 9 9 9 8 0 15 -2 15 -3z m240 0 c0 -8 -19 -13 -24 -6 -3 5 1 9 9
9 8 0 15 -2 15 -3z m240 0 c0 -8 -19 -13 -24 -6 -3 5 1 9 9 9 8 0 15 -2 15 -3z
m1560 0 c0 -8 -19 -13 -24 -6 -3 5 1 9 9 9 8 0 15 -2 15 -3z m120 0 c0 -8 -19
-13 -24 -6 -3 5 1 9 9 9 8 0 15 -2 15 -3z m240 0 c0 -8 -19 -13 -24 -6 -3 5 1
9 9 9 8 0 15 -2 15 -3z m240 0 c0 -8 -19 -13 -24 -6 -3 5 1 9 9 9 8 0 15 -2
15 -3z m240 0 c0 -8 -19 -13 -24 -6 -3 5 1 9 9 9 8 0 15 -2 15 -3z m240 0 c0
-8 -19 -13 -24 -6 -3 5 1 9 9 9 8 0 15 -2 15 -3z m360 0 c0 -8 -19 -13 -24 -6
-3 5 1 9 9 9 8 0 15 -2 15 -3z m240 0 c0 -8 -19 -13 -24 -6 -3 5 1 9 9 9 8 0
15 -2 15 -3z m240 0 c0 -8 -19 -13 -24 -6 -3 5 1 9 9 9 8 0 15 -2 15 -3z m240
0 c0 -8 -19 -13 -24 -6 -3 5 1 9 9 9 8 0 15 -2 15 -3z m-9640 -344 c0 -5 -2
-10 -4 -10 -3 0 -8 5 -11 10 -3 6 -1 10 4 10 6 0 11 -4 11 -10z m11154 -726
c3 -8 2 -12 -4 -9 -6 3 -10 10 -10 16 0 14 7 11 14 -7z m0 -60 c3 -8 2 -12 -4
-9 -6 3 -10 10 -10 16 0 14 7 11 14 -7z"/>
<path d="M2826 10219 c4 -8 30 -6 38 2 3 3 -5 5 -19 5 -13 0 -22 -3 -19 -7z"/>
<path d="M3066 10219 c4 -8 30 -6 38 2 3 3 -5 5 -19 5 -13 0 -22 -3 -19 -7z"/>
<path d="M3306 10219 c4 -8 30 -6 38 2 3 3 -5 5 -19 5 -13 0 -22 -3 -19 -7z"/>
<path d="M3546 10219 c4 -8 30 -6 38 2 3 3 -5 5 -19 5 -13 0 -22 -3 -19 -7z"/>
<path d="M3786 10219 c4 -8 30 -6 38 2 3 3 -5 5 -19 5 -13 0 -22 -3 -19 -7z"/>
<path d="M4026 10219 c4 -8 30 -6 38 2 3 3 -5 5 -19 5 -13 0 -22 -3 -19 -7z"/>
<path d="M4266 10219 c4 -8 30 -6 38 2 3 3 -5 5 -19 5 -13 0 -22 -3 -19 -7z"/>
<path d="M4506 10219 c4 -8 30 -6 38 2 3 3 -5 5 -19 5 -13 0 -22 -3 -19 -7z"/>
<path d="M4746 10219 c4 -8 30 -6 38 2 3 3 -5 5 -19 5 -13 0 -22 -3 -19 -7z"/>
<path d="M4986 10219 c4 -8 30 -6 38 2 3 3 -5 5 -19 5 -13 0 -22 -3 -19 -7z"/>
<path d="M5130 10218 c0 -4 4 -8 9 -8 6 0 12 4 15 8 3 5 -1 9 -9 9 -8 0 -15
-4 -15 -9z"/>
<path d="M5226 10218 c3 -5 10 -6 15 -3 13 9 11 12 -6 12 -8 0 -12 -4 -9 -9z"/>
<path d="M5346 10218 c3 -5 10 -6 15 -3 13 9 11 12 -6 12 -8 0 -12 -4 -9 -9z"/>
<path d="M5450 10218 c0 -4 4 -8 9 -8 6 0 12 4 15 8 3 5 -1 9 -9 9 -8 0 -15
-4 -15 -9z"/>
<path d="M5546 10218 c3 -5 10 -6 15 -3 13 9 11 12 -6 12 -8 0 -12 -4 -9 -9z"/>
<path d="M5666 10218 c3 -5 10 -6 15 -3 13 9 11 12 -6 12 -8 0 -12 -4 -9 -9z"/>
<path d="M5770 10218 c0 -4 4 -8 9 -8 6 0 12 4 15 8 3 5 -1 9 -9 9 -8 0 -15
-4 -15 -9z"/>
<path d="M5866 10218 c3 -5 10 -6 15 -3 13 9 11 12 -6 12 -8 0 -12 -4 -9 -9z"/>
<path d="M5986 10218 c3 -5 10 -6 15 -3 13 9 11 12 -6 12 -8 0 -12 -4 -9 -9z"/>
<path d="M6090 10218 c0 -4 4 -8 9 -8 6 0 12 4 15 8 3 5 -1 9 -9 9 -8 0 -15
-4 -15 -9z"/>
<path d="M6186 10218 c3 -5 10 -6 15 -3 13 9 11 12 -6 12 -8 0 -12 -4 -9 -9z"/>
<path d="M6306 10218 c3 -5 10 -6 15 -3 13 9 11 12 -6 12 -8 0 -12 -4 -9 -9z"/>
<path d="M6410 10218 c0 -4 4 -8 9 -8 6 0 12 4 15 8 3 5 -1 9 -9 9 -8 0 -15
-4 -15 -9z"/>
<path d="M6506 10218 c3 -5 10 -6 15 -3 13 9 11 12 -6 12 -8 0 -12 -4 -9 -9z"/>
<path d="M6626 10218 c3 -5 10 -6 15 -3 13 9 11 12 -6 12 -8 0 -12 -4 -9 -9z"/>
<path d="M6730 10218 c0 -4 4 -8 9 -8 6 0 12 4 15 8 3 5 -1 9 -9 9 -8 0 -15
-4 -15 -9z"/>
<path d="M6826 10218 c3 -5 10 -6 15 -3 13 9 11 12 -6 12 -8 0 -12 -4 -9 -9z"/>
<path d="M6946 10218 c3 -5 10 -6 15 -3 13 9 11 12 -6 12 -8 0 -12 -4 -9 -9z"/>
<path d="M7050 10218 c0 -4 4 -8 9 -8 6 0 12 4 15 8 3 5 -1 9 -9 9 -8 0 -15
-4 -15 -9z"/>
<path d="M7146 10218 c3 -5 10 -6 15 -3 13 9 11 12 -6 12 -8 0 -12 -4 -9 -9z"/>
<path d="M7266 10218 c3 -5 10 -6 15 -3 13 9 11 12 -6 12 -8 0 -12 -4 -9 -9z"/>
<path d="M7370 10218 c0 -4 4 -8 9 -8 6 0 12 4 15 8 3 5 -1 9 -9 9 -8 0 -15
-4 -15 -9z"/>
<path d="M7466 10218 c3 -5 10 -6 15 -3 13 9 11 12 -6 12 -8 0 -12 -4 -9 -9z"/>
<path d="M7586 10218 c3 -5 10 -6 15 -3 13 9 11 12 -6 12 -8 0 -12 -4 -9 -9z"/>
<path d="M7716 10218 c3 -5 10 -6 15 -3 13 9 11 12 -6 12 -8 0 -12 -4 -9 -9z"/>
<path d="M8026 10219 c4 -8 30 -6 38 2 3 3 -5 5 -19 5 -13 0 -22 -3 -19 -7z"/>
<path d="M8266 10219 c4 -8 30 -6 38 2 3 3 -5 5 -19 5 -13 0 -22 -3 -19 -7z"/>
<path d="M8506 10219 c4 -8 30 -6 38 2 3 3 -5 5 -19 5 -13 0 -22 -3 -19 -7z"/>
<path d="M8746 10219 c4 -8 30 -6 38 2 3 3 -5 5 -19 5 -13 0 -22 -3 -19 -7z"/>
<path d="M8986 10219 c4 -8 30 -6 38 2 3 3 -5 5 -19 5 -13 0 -22 -3 -19 -7z"/>
<path d="M9226 10219 c4 -8 30 -6 38 2 3 3 -5 5 -19 5 -13 0 -22 -3 -19 -7z"/>
<path d="M9466 10219 c4 -8 30 -6 38 2 3 3 -5 5 -19 5 -13 0 -22 -3 -19 -7z"/>
<path d="M9706 10219 c4 -8 30 -6 38 2 3 3 -5 5 -19 5 -13 0 -22 -3 -19 -7z"/>
<path d="M9946 10219 c4 -8 30 -6 38 2 3 3 -5 5 -19 5 -13 0 -22 -3 -19 -7z"/>
<path d="M2547 10053 c-10 -9 -9 -23 1 -23 5 0 9 7 9 15 0 17 -1 18 -10 8z"/>
<path d="M2545 9990 c-3 -6 1 -7 9 -4 18 7 21 14 7 14 -6 0 -13 -4 -16 -10z"/>
<path d="M2547 9813 c-10 -9 -9 -23 1 -23 5 0 9 7 9 15 0 17 -1 18 -10 8z"/>
<path d="M2545 9750 c-3 -6 1 -7 9 -4 18 7 21 14 7 14 -6 0 -13 -4 -16 -10z"/>
<path d="M2547 9573 c-10 -9 -9 -23 1 -23 5 0 9 7 9 15 0 17 -1 18 -10 8z"/>
<path d="M2545 9510 c-3 -6 1 -7 9 -4 18 7 21 14 7 14 -6 0 -13 -4 -16 -10z"/>
<path d="M2547 9333 c-10 -9 -9 -23 1 -23 5 0 9 7 9 15 0 17 -1 18 -10 8z"/>
<path d="M2545 9270 c-3 -6 1 -7 9 -4 18 7 21 14 7 14 -6 0 -13 -4 -16 -10z"/>
<path d="M2547 9093 c-10 -9 -9 -23 1 -23 5 0 9 7 9 15 0 17 -1 18 -10 8z"/>
<path d="M2545 9030 c-3 -6 1 -7 9 -4 18 7 21 14 7 14 -6 0 -13 -4 -16 -10z"/>
<path d="M2547 8853 c-10 -9 -9 -23 1 -23 5 0 9 7 9 15 0 17 -1 18 -10 8z"/>
<path d="M2545 8790 c-3 -6 1 -7 9 -4 18 7 21 14 7 14 -6 0 -13 -4 -16 -10z"/>
<path d="M2547 8613 c-10 -9 -9 -23 1 -23 5 0 9 7 9 15 0 17 -1 18 -10 8z"/>
<path d="M2545 8550 c-3 -6 1 -7 9 -4 18 7 21 14 7 14 -6 0 -13 -4 -16 -10z"/>
<path d="M2547 8373 c-10 -9 -9 -23 1 -23 5 0 9 7 9 15 0 17 -1 18 -10 8z"/>
<path d="M2545 8310 c-3 -6 1 -7 9 -4 18 7 21 14 7 14 -6 0 -13 -4 -16 -10z"/>
<path d="M2547 8133 c-10 -9 -9 -23 1 -23 5 0 9 7 9 15 0 17 -1 18 -10 8z"/>
<path d="M2545 8070 c-3 -6 1 -7 9 -4 18 7 21 14 7 14 -6 0 -13 -4 -16 -10z"/>
<path d="M2547 7893 c-10 -9 -9 -23 1 -23 5 0 9 7 9 15 0 17 -1 18 -10 8z"/>
<path d="M2545 7830 c-3 -6 1 -7 9 -4 18 7 21 14 7 14 -6 0 -13 -4 -16 -10z"/>
<path d="M2547 7653 c-10 -9 -9 -23 1 -23 5 0 9 7 9 15 0 17 -1 18 -10 8z"/>
<path d="M2545 7590 c-3 -6 1 -7 9 -4 18 7 21 14 7 14 -6 0 -13 -4 -16 -10z"/>
<path d="M2547 7413 c-10 -9 -9 -23 1 -23 5 0 9 7 9 15 0 17 -1 18 -10 8z"/>
<path d="M2545 7350 c-3 -6 1 -7 9 -4 18 7 21 14 7 14 -6 0 -13 -4 -16 -10z"/>
<path d="M2547 7173 c-10 -9 -9 -23 1 -23 5 0 9 7 9 15 0 17 -1 18 -10 8z"/>
<path d="M2545 7110 c-3 -6 1 -7 9 -4 18 7 21 14 7 14 -6 0 -13 -4 -16 -10z"/>
<path d="M2547 6933 c-10 -9 -9 -23 1 -23 5 0 9 7 9 15 0 17 -1 18 -10 8z"/>
<path d="M2545 6870 c-3 -6 1 -7 9 -4 18 7 21 14 7 14 -6 0 -13 -4 -16 -10z"/>
<path d="M2547 6693 c-10 -9 -9 -23 1 -23 5 0 9 7 9 15 0 17 -1 18 -10 8z"/>
<path d="M2545 6630 c-3 -6 1 -7 9 -4 18 7 21 14 7 14 -6 0 -13 -4 -16 -10z"/>
<path d="M2547 6453 c-10 -9 -9 -23 1 -23 5 0 9 7 9 15 0 17 -1 18 -10 8z"/>
<path d="M2545 6390 c-3 -6 1 -7 9 -4 18 7 21 14 7 14 -6 0 -13 -4 -16 -10z"/>
<path d="M2547 6213 c-10 -9 -9 -23 1 -23 5 0 9 7 9 15 0 17 -1 18 -10 8z"/>
<path d="M2545 6150 c-3 -6 1 -7 9 -4 18 7 21 14 7 14 -6 0 -13 -4 -16 -10z"/>
<path d="M2547 5973 c-10 -9 -9 -23 1 -23 5 0 9 7 9 15 0 17 -1 18 -10 8z"/>
<path d="M2545 5910 c-3 -6 1 -7 9 -4 18 7 21 14 7 14 -6 0 -13 -4 -16 -10z"/>
<path d="M2547 5733 c-10 -9 -9 -23 1 -23 5 0 9 7 9 15 0 17 -1 18 -10 8z"/>
<path d="M2545 5670 c-3 -6 1 -7 9 -4 18 7 21 14 7 14 -6 0 -13 -4 -16 -10z"/>
<path d="M2547 5493 c-10 -9 -9 -23 1 -23 5 0 9 7 9 15 0 17 -1 18 -10 8z"/>
<path d="M2545 5430 c-3 -6 1 -7 9 -4 18 7 21 14 7 14 -6 0 -13 -4 -16 -10z"/>
</g>
</svg>
